PathFileType	4	(X/Y/Z)	C:\Users\Basilio\Documents\Thesis Gigler\squatting_fais\c3dfiles\041\SLS_pre_front3\markers_experimental.trc
DataRate	CameraRate	NumFrames	NumMarkers	Units	OrigDataRate	OrigDataStartFrame	OrigNumFrames
200.000000	200.000000	4	62	mm	200.000000	202	1622
Frame#	Time	FHD			LBHD			RBHD			C7			T10			CLAV			LSHO			LUUPA			LMUPA			LDUPA			LLEP			LMEP			LRAD			LUL			LRFIN			RSHO			RUPA1			RMUPA			RDUPA			RLEP			RMEP			RRAD			RUL			RUFIN			LASI			RASI			USACR			LSACR			RSACR			LTHI1			LTHI2			LTHI3			LTHI4			LLFC			LMFC			LTIB1			LTIB2			LTIB3			LTIB4			LLMAL			LMMAL			LHEE			LMT1			LMT2			LMT5			RTHI			RTHI2			RTHI3			RTHI4			RLFC			RMFC			RTIB1			RTIB2			RTIB3			RTIB4			RLMAL			RMMAL			RHEE			RMT1			RMT2			RMT5			*61			
		X1	Y1	Z1	X2	Y2	Z2	X3	Y3	Z3	X4	Y4	Z4	X5	Y5	Z5	X6	Y6	Z6	X7	Y7	Z7	X8	Y8	Z8	X9	Y9	Z9	X10	Y10	Z10	X11	Y11	Z11	X12	Y12	Z12	X13	Y13	Z13	X14	Y14	Z14	X15	Y15	Z15	X16	Y16	Z16	X17	Y17	Z17	X18	Y18	Z18	X19	Y19	Z19	X20	Y20	Z20	X21	Y21	Z21	X22	Y22	Z22	X23	Y23	Z23	X24	Y24	Z24	X25	Y25	Z25	X26	Y26	Z26	X27	Y27	Z27	X28	Y28	Z28	X29	Y29	Z29	X30	Y30	Z30	X31	Y31	Z31	X32	Y32	Z32	X33	Y33	Z33	X34	Y34	Z34	X35	Y35	Z35	X36	Y36	Z36	X37	Y37	Z37	X38	Y38	Z38	X39	Y39	Z39	X40	Y40	Z40	X41	Y41	Z41	X42	Y42	Z42	X43	Y43	Z43	X44	Y44	Z44	X45	Y45	Z45	X46	Y46	Z46	X47	Y47	Z47	X48	Y48	Z48	X49	Y49	Z49	X50	Y50	Z50	X51	Y51	Z51	X52	Y52	Z52	X53	Y53	Z53	X54	Y54	Z54	X55	Y55	Z55	X56	Y56	Z56	X57	Y57	Z57	X58	Y58	Z58	X59	Y59	Z59	X60	Y60	Z60	X61	Y61	Z61	X62	Y62	Z62	

203	1.01	-231.8726654052735	1794.20947265625	-935.7009277343752	-406.9297180175782	1723.025756835938	-1012.202453613281	-385.3390197753907	1720.594482421875	-860.4964599609377	-429.9189758300782	1562.826538085938	-950.1828613281252	-432.644500732422	1247.42236328125	-942.3325195312502	-266.9505310058594	1517.7763671875	-955.4682617187502	-371.9009094238282	1552.281616210938	-1121.550659179688	-376.2255554199219	1364.066040039063	-1217.212158203125	-331.8037719726563	1344.0966796875	-1221.29638671875	-369.4123535156251	1298.657470703125	-1240.035522460938	-360.1206970214844	1251.364624023438	-1248.483520507813	-344.3330688476563	1211.296752929688	-1172.838500976563	-183.914779663086	1040.560913085938	-1286.820556640625	-244.4718475341797	1028.380126953125	-1326.961547851563	-139.3258056640625	995.394714355469	-1334.121826171875	-345.9279785156251	1556.488159179688	-781.9404296875002	-390.6134033203126	1346.73291015625	-684.4855957031251	-341.1214294433594	1337.918212890625	-683.6069946289064	-362.4165344238282	1284.496704101563	-667.6221313476564	-353.4212646484376	1240.848876953125	-660.1808471679689	-372.0863037109376	1211.851806640625	-743.5136718750001	-203.0304260253907	1022.390014648438	-695.7784423828126	-260.8503112792969	1001.908142089844	-649.7739257812501	-157.7595977783203	961.946228027344	-673.1454467773439	-267.7056274414063	1070.32470703125	-1064.38818359375	-262.2482910156251	1063.334106445313	-838.0960083007815	-441.9259033203126	1129.9892578125	-944.888366699219	-457.2056884765626	1103.61328125	-971.3325195312502	-455.7603454589845	1103.05859375	-917.0823364257815	-377.7615661621094	853.7199707031252	-1131.733276367188	-338.2896728515626	778.3885498046877	-1129.166259765625	-290.8326110839844	784.1904296875002	-1121.317016601563	-363.3573913574219	724.0217285156251	-1119.390502929688	-338.5606689453126	544.1572875976564	-1108.924438476563	-330.9830017089844	523.2688598632814	-990.0351562500002	-310.1035766601563	350.6799011230469	-1056.783081054688	-358.0190124511719	310.3938903808594	-1120.871337890625	-321.0095825195313	304.6514587402344	-1094.51806640625	-325.1332702636719	225.8605194091797	-1063.685913085938	-384.4430541992189	134.9724273681641	-1104.0693359375	-346.0712890625001	137.8785247802735	-1023.139038085938	-449.4362182617189	118.3488693237305	-1063.372680664063	-241.9719696044922	64.04578399658205	-1039.505859375	-235.7237243652344	59.11501693725587	-1085.367553710938	-284.4879760742188	45.10171127319337	-1137.657104492188	-362.8628845214844	797.624450683594	-757.4333496093751	-322.5894165039063	745.6040039062501	-752.4669189453126	-289.4633483886719	748.6797485351564	-757.1297607421876	-345.5746765136719	664.5720214843751	-765.1112060546876	-337.2233581542969	539.2489013671876	-758.8102416992189	-317.9773254394532	514.3743286132814	-875.285583496094	-307.9023437500001	370.1742248535157	-757.2479858398439	-392.5263671875001	298.0700073242188	-739.0136718750001	-346.0787048339844	293.6273193359376	-738.2210083007814	-324.6730957031251	243.0780487060547	-763.5518188476564	-386.1358642578126	132.07080078125	-744.4159545898439	-355.2134399414063	141.6450347900391	-822.1423339843752	-445.8759765625001	111.773796081543	-794.2017822265627	-238.5016174316407	55.79261016845705	-802.6069335937502	-234.7974700927735	56.8033790588379	-749.8717651367189	-281.7093811035157	48.68944168090822	-701.4653930664064	-4216.853515625001	853.1414184570315	-3944.802490234376	
204	1.015	-231.9576721191407	1794.27001953125	-935.8068847656252	-406.9989624023439	1723.018676757813	-1012.269897460938	-385.4089965820314	1720.623291015625	-860.6668701171877	-429.9997558593751	1562.953369140625	-950.227478027344	-432.8135681152345	1247.487670898438	-942.3247070312502	-267.0039672851563	1517.826171875	-955.593200683594	-371.8446350097657	1552.230834960938	-1121.6396484375	-375.7029113769532	1364.116943359375	-1217.418334960938	-331.1763305664063	1344.348266601563	-1221.527587890625	-368.7374877929688	1298.85546875	-1240.383056640625	-359.2259826660157	1251.615478515625	-1248.840576171875	-343.4437255859376	1211.302001953125	-1173.177978515625	-182.876205444336	1040.9736328125	-1286.956176757813	-243.4993438720704	1028.760009765625	-1327.505004882813	-138.3728485107422	996.0957641601565	-1333.994873046875	-345.9359130859376	1556.490600585938	-782.0164184570315	-390.3744506835939	1346.791748046875	-684.3349609375001	-341.2006530761719	1337.84619140625	-683.9469604492189	-362.0306091308594	1284.638793945313	-667.4337158203126	-352.9721374511719	1241.015869140625	-659.9234619140626	-371.8467102050782	1211.915893554688	-743.1838378906251	-202.4225006103516	1022.639831542969	-695.5506591796876	-260.2747802734376	1002.281799316406	-649.4181518554689	-156.9842987060547	962.548767089844	-672.9105224609376	-268.0792236328126	1070.320434570313	-1064.446166992188	-262.3573303222657	1063.364379882813	-838.149108886719	-442.1450195312501	1130.011352539063	-944.8430175781252	-457.445037841797	1103.589233398438	-971.310485839844	-456.0498962402345	1103.055786132813	-917.0535888671877	-377.9634094238282	853.6589355468752	-1131.822875976563	-338.4894409179688	778.351745605469	-1129.240234375	-290.9280090332032	784.1580200195315	-1121.350341796875	-363.5185241699219	724.0358886718751	-1119.41259765625	-338.6972656250001	544.1399536132814	-1108.965209960938	-331.0578308105469	523.2478027343751	-990.0718383789065	-310.2084655761719	350.6950683593751	-1056.779052734375	-358.0897521972657	310.3629455566407	-1120.869018554688	-321.0477905273438	304.6698608398438	-1094.505737304688	-325.1966552734376	225.7010345458985	-1063.764892578125	-384.4438781738282	134.9739837646485	-1104.067504882813	-346.0684509277344	137.9205017089844	-1023.145263671875	-449.454071044922	118.37158203125	-1063.331665039063	-242.044906616211	64.09564208984376	-1039.511108398438	-235.692367553711	59.07685470581056	-1085.406616210938	-284.4481811523438	45.08575439453126	-1137.680419921875	-362.9339599609376	797.5911865234377	-757.4680786132814	-322.6165161132813	745.5767211914064	-752.6334228515626	-289.5186462402344	748.7715454101564	-757.2153930664064	-345.5973510742188	664.6246948242189	-765.1105957031251	-337.2694702148438	539.2522583007814	-758.8237915039064	-318.0047912597657	514.4000244140626	-875.3238525390627	-307.9368286132813	370.1640930175782	-757.2781982421876	-392.5101928710939	298.0734863281251	-738.9777832031251	-346.0943298339844	293.6100769042969	-738.2378540039064	-324.6779479980469	243.1123046875001	-763.5424194335939	-386.1296691894532	132.0494079589844	-744.3767089843751	-355.2321777343751	141.6532592773438	-822.109802246094	-445.8187561035157	111.755973815918	-794.153747558594	-238.5251464843751	55.81013870239259	-802.6286621093752	-234.7884521484376	56.82221984863283	-749.8963012695314	-281.7329101562501	48.68506622314455	-701.4655151367189	-4216.886718750001	853.184509277344	-3944.830566406251	
205	1.02	-231.8121032714844	1794.048706054688	-935.8184814453127	-407.0644531250001	1722.999389648438	-1012.34521484375	-385.4280395507814	1720.633544921875	-860.7127685546877	-430.0219726562501	1562.935424804688	-950.3057250976565	-432.9934387207032	1247.553100585938	-942.3658447265627	-267.0301208496094	1517.8251953125	-955.6202392578127	-371.8352355957032	1552.187255859375	-1121.725463867188	-375.2054443359376	1364.181884765625	-1217.668823242188	-330.5886535644532	1344.575317382813	-1221.705444335938	-367.9508056640626	1299.019287109375	-1240.735473632813	-358.3122863769532	1251.860961914063	-1249.21826171875	-342.7324218750001	1211.43212890625	-1173.585327148438	-181.7867279052735	1041.169555664063	-1287.01220703125	-241.9205169677735	1029.03564453125	-1328.068481445313	-136.9476623535157	996.6848144531252	-1334.250610351563	-345.9324035644532	1556.47314453125	-782.0588378906252	-390.2586364746095	1346.8017578125	-684.2698364257814	-340.8333435058594	1338.074096679688	-683.3667602539064	-361.7243957519532	1284.7783203125	-667.1665039062501	-352.6574096679688	1241.1787109375	-659.5747680664064	-371.6297912597657	1211.90283203125	-742.7645263671876	-201.9212646484376	1022.913696289063	-695.1715087890626	-259.3733215332032	1002.487365722656	-648.9361572265626	-156.1943817138672	963.0247802734377	-672.5550537109376	-267.9824218750001	1070.228637695313	-1064.392822265625	-262.5118103027344	1063.406127929688	-838.2446289062502	-442.3924560546876	1130.010986328125	-944.8519287109377	-457.6602172851564	1103.576171875	-971.2739257812502	-456.1891174316407	1103.0615234375	-917.0593261718752	-378.2023315429688	853.6146240234377	-1131.755493164063	-338.6652221679688	778.400085449219	-1129.314208984375	-291.0282287597657	784.1396484375002	-1121.352172851563	-363.6076049804688	724.0018310546876	-1119.45947265625	-338.7491149902344	544.1304321289064	-1108.987548828125	-331.2985229492188	523.2673339843751	-990.1312255859377	-310.2896728515626	350.7040710449219	-1056.8271484375	-358.1300354003907	310.2747497558594	-1120.90478515625	-321.1434936523438	304.6255187988282	-1094.540649414063	-325.1922912597657	225.7567291259766	-1063.802368164063	-384.4979248046876	134.97216796875	-1104.068481445313	-346.0828247070313	137.8694305419922	-1023.174621582031	-449.4568481445314	118.3938140869141	-1063.327270507813	-242.0001068115235	64.04567718505861	-1039.508666992188	-235.685287475586	59.0903778076172	-1085.407592773438	-284.4541931152344	45.04582595825196	-1137.670166015625	-362.9470214843751	797.654479980469	-757.5066528320314	-322.6474914550782	745.5633544921876	-752.6900634765626	-289.7082519531251	748.9245605468751	-757.1563720703126	-345.6419067382813	664.6237182617189	-765.1122436523439	-337.3122253417969	539.2537841796876	-758.8110351562501	-318.0924987792969	514.3549804687501	-875.3374023437502	-307.9319763183594	370.1622619628907	-757.2832031250001	-392.5885009765626	298.0783691406251	-738.9696044921876	-346.1013488769532	293.6165466308594	-738.2026367187501	-324.7181091308594	243.1418914794922	-763.5632934570314	-386.1955566406251	132.0433197021485	-744.3563232421876	-355.1665039062501	141.6571960449219	-822.0884399414065	-445.8504028320314	111.7447814941407	-794.2005615234377	-238.4743347167969	55.78641891479494	-802.647399902344	-234.7943878173829	56.85635375976564	-749.8774414062501	-281.7171325683594	48.61558151245119	-701.4880371093751	-4217.007812500001	853.1465454101565	-3944.781005859376	
206	1.025	-231.9198455810547	1794.09814453125	-935.9971313476565	-407.136199951172	1723.01025390625	-1012.463012695313	-385.491180419922	1720.5859375	-860.828552246094	-430.0902099609376	1563.018188476563	-950.3624267578127	-433.117645263672	1247.626831054688	-942.3794555664065	-267.1638793945313	1517.862426757813	-955.7239379882815	-371.6808166503907	1552.095825195313	-1121.750854492188	-374.7094421386719	1364.364990234375	-1217.876220703125	-329.7138366699219	1344.35205078125	-1221.8486328125	-367.1764831542969	1299.080932617188	-1241.055053710938	-357.3250427246094	1252.085693359375	-1249.636840820313	-342.3868408203126	1211.649291992188	-1173.989501953125	-181.172348022461	1041.540405273438	-1287.061889648438	-240.336166381836	1029.411743164063	-1328.7431640625	-135.7249450683594	996.991394042969	-1334.289916992188	-345.9165649414063	1556.450927734375	-782.0881347656252	-390.0503234863282	1346.8232421875	-684.1622314453126	-340.6437072753907	1338.226318359375	-683.3259887695314	-361.2673339843751	1284.890014648438	-666.9808349609376	-352.2990417480469	1241.404907226563	-659.2390136718751	-371.2728271484376	1211.906494140625	-742.3779907226564	-201.1514129638672	1023.38427734375	-694.8571777343751	-258.7141113281251	1002.7392578125	-648.3897094726564	-155.6573944091797	963.3215332031252	-672.0031127929689	-268.1371765136719	1070.2509765625	-1064.476806640625	-262.6028442382813	1063.398193359375	-838.3187255859377	-442.6668090820314	1130.052612304688	-944.872741699219	-457.9044494628907	1103.549194335938	-971.2786865234377	-456.461395263672	1103.045654296875	-917.0579833984377	-378.3881225585938	853.5418090820315	-1131.79443359375	-338.8625183105469	778.3911132812502	-1129.34912109375	-291.2741699218751	784.2471923828127	-1121.418090820313	-363.8832092285157	724.0051879882814	-1119.545776367188	-338.8221740722657	544.1642456054689	-1109.020141601563	-331.4450988769532	523.2818603515626	-990.208923339844	-310.4040222167969	350.6039428710938	-1056.828735351563	-358.2433776855469	310.2728881835938	-1120.894775390625	-321.2394104003907	304.6575317382813	-1094.577880859375	-325.2433471679688	225.8426666259766	-1063.814086914063	-384.4876403808595	134.9598693847657	-1104.068237304688	-346.1160888671876	137.8721160888672	-1023.172302246094	-449.4673156738282	118.381217956543	-1063.320190429688	-242.0169372558594	64.09384155273439	-1039.495971679688	-235.683334350586	59.08187866210939	-1085.425048828125	-284.4378051757813	45.07792663574219	-1137.678588867188	-363.0297851562501	797.6485595703127	-757.5562744140626	-322.7048034667969	745.4968261718751	-753.0362548828126	-289.7590026855469	748.9570922851564	-757.1760253906251	-345.6758117675782	664.6310424804689	-765.1387329101564	-337.3581542968751	539.2540283203126	-758.8264770507814	-318.1798706054688	514.3823852539064	-875.3693847656252	-307.9840698242188	370.1777343750001	-757.3068847656251	-392.6280212402345	298.0660705566407	-738.9453735351564	-346.1284179687501	293.6195983886719	-738.2147827148439	-324.9413452148438	243.2869720458985	-763.5083618164064	-386.1600952148439	132.0231475830078	-744.3449096679689	-355.2076721191407	141.6205291748047	-822.0728149414065	-445.8753051757814	111.7291717529297	-794.1450195312502	-238.4682922363282	55.81625366210939	-802.602722167969	-234.7875213623047	56.87498092651369	-749.8692016601564	-281.7463073730469	48.65295791625978	-701.4559326171876	-4217.030761718751	853.1416015625002	-3944.762451171876	
